<?xml version="1.0" encoding="UTF-8"?>
<!DOCTYPE svg PUBLIC "-//W3C//DTD SVG 1.1//EN" "http://www.w3.org/Graphics/SVG/1.1/DTD/svg11.dtd">
<svg xmlns="http://www.w3.org/2000/svg" version="1.1" width="270px" height="196px" style="shape-rendering:geometricPrecision; text-rendering:geometricPrecision; image-rendering:optimizeQuality; fill-rule:evenodd; clip-rule:evenodd" xmlns:xlink="http://www.w3.org/1999/xlink">
<g><path style="opacity:0.955" fill="#020000" d="M 111.5,2.5 C 127.944,1.115 139.111,8.115 145,23.5C 147.286,29.9771 148.619,36.6438 149,43.5C 149.961,61.5047 150.961,79.5047 152,97.5C 152.384,101.653 153.384,105.653 155,109.5C 155.66,111.324 156.827,112.657 158.5,113.5C 160.288,114.622 162.288,114.789 164.5,114C 170.534,108.436 174.367,101.602 176,93.5C 180.466,66.2058 180.633,38.8725 176.5,11.5C 181.623,10.023 186.956,9.02298 192.5,8.5C 192.833,9.33333 193.167,10.1667 193.5,11C 196.897,36.1287 197.23,61.2953 194.5,86.5C 193.057,99.2925 188.724,110.959 181.5,121.5C 175.076,129.532 166.742,132.865 156.5,131.5C 148.336,128.841 142.503,123.508 139,115.5C 137.353,110.246 136.02,104.913 135,99.5C 134.374,78.1044 133.04,56.7711 131,35.5C 129.711,29.0716 126.544,23.905 121.5,20C 118.961,19.2042 116.628,19.3709 114.5,20.5C 108.682,20.7949 104.182,23.4616 101,28.5C 94.738,43.3196 91.9047,58.8196 92.5,75C 93.2623,91.8848 94.5957,108.718 96.5,125.5C 91.4719,125.92 86.4719,126.587 81.5,127.5C 80.5836,127.457 79.9169,127.124 79.5,126.5C 77.6168,109.716 76.2835,92.8831 75.5,76C 75.465,61.9782 76.965,48.1449 80,34.5C 84.0899,17.2449 94.5899,6.57826 111.5,2.5 Z"/></g>
<g><path style="opacity:0.877" fill="#f64746" d="M 111.5,2.5 C 94.5899,6.57826 84.0899,17.2449 80,34.5C 76.965,48.1449 75.465,61.9782 75.5,76C 76.2835,92.8831 77.6168,109.716 79.5,126.5C 77.9902,127.728 76.4902,127.728 75,126.5C 70.9319,100.944 69.9319,75.2775 72,49.5C 73.2006,33.6069 79.3673,20.1069 90.5,9C 96.6731,4.20603 103.673,2.03936 111.5,2.5 Z"/></g>
<g><path style="opacity:0.863" fill="#f64646" d="M 176.5,11.5 C 180.633,38.8725 180.466,66.2058 176,93.5C 174.367,101.602 170.534,108.436 164.5,114C 162.288,114.789 160.288,114.622 158.5,113.5C 163.213,111.279 166.38,107.612 168,102.5C 171.384,93.8233 173.384,84.8233 174,75.5C 174.792,54.1318 174.292,32.7984 172.5,11.5C 173.833,11.5 175.167,11.5 176.5,11.5 Z"/></g>
<g><path style="opacity:0.866" fill="#f34545" d="M 114.5,20.5 C 116.628,19.3709 118.961,19.2042 121.5,20C 126.544,23.905 129.711,29.0716 131,35.5C 133.04,56.7711 134.374,78.1044 135,99.5C 136.02,104.913 137.353,110.246 139,115.5C 142.503,123.508 148.336,128.841 156.5,131.5C 145.576,131.088 138.076,125.755 134,115.5C 132.462,110.552 131.128,105.552 130,100.5C 128.951,81.5032 127.951,62.5032 127,43.5C 126.687,34.7163 123.52,27.2163 117.5,21C 116.552,20.5172 115.552,20.3505 114.5,20.5 Z"/></g>
<g><path style="opacity:0.716" fill="#000000" d="M 119.5,137.5 C 120.833,137.5 122.167,137.5 123.5,137.5C 123.667,153.837 123.5,170.17 123,186.5C 121.413,187.727 120.079,187.394 119,185.5C 118.197,169.456 118.364,153.456 119.5,137.5 Z"/></g>
<g><path style="opacity:0.76" fill="#000000" d="M 33.5,141.5 C 36.2919,141.452 38.1253,142.785 39,145.5C 41.8016,152.903 44.8016,160.236 48,167.5C 48.3333,159.167 48.6667,150.833 49,142.5C 50.6667,141.167 52.3333,141.167 54,142.5C 54.6667,155.167 54.6667,167.833 54,180.5C 51.8724,184.376 49.5391,184.376 47,180.5C 44.2834,172.732 41.2834,165.065 38,157.5C 37.6667,165.5 37.3333,173.5 37,181.5C 35.6043,183.527 33.9376,183.86 32,182.5C 31.8333,175.833 31.6667,169.167 31.5,162.5C 31.5372,155.264 32.2038,148.264 33.5,141.5 Z"/></g>
<g><path style="opacity:0.76" fill="#000000" d="M 144.5,141.5 C 149.704,141.011 154.037,142.677 157.5,146.5C 158.788,149.034 158.788,151.534 157.5,154C 153.712,155.058 151.712,153.558 151.5,149.5C 149.078,147.35 146.411,147.017 143.5,148.5C 142.048,151.282 142.381,153.782 144.5,156C 149.59,157.958 154.09,160.792 158,164.5C 162.003,174.872 158.67,181.206 148,183.5C 139.293,182.708 135.293,178.042 136,169.5C 137.699,168.594 139.533,168.261 141.5,168.5C 141.446,175.975 144.779,178.475 151.5,176C 154.269,172.393 153.936,169.06 150.5,166C 145.255,164.263 140.755,161.43 137,157.5C 134.511,149.486 137.011,144.152 144.5,141.5 Z"/></g>
<g><path style="opacity:0.752" fill="#000000" d="M 163.5,141.5 C 165.144,141.286 166.644,141.62 168,142.5C 168.333,147.167 168.667,151.833 169,156.5C 174.431,152.182 179.431,152.516 184,157.5C 185.523,165.102 185.856,172.768 185,180.5C 184.121,183.346 182.454,184.013 180,182.5C 179.667,175.5 179.333,168.5 179,161.5C 176.122,159.02 173.122,159.02 170,161.5C 168.745,168.059 168.078,174.726 168,181.5C 166.806,183.525 165.306,183.859 163.5,182.5C 162.186,168.771 162.186,155.104 163.5,141.5 Z"/></g>
<g><path style="opacity:0.761" fill="#000000" d="M 65.5,153.5 C 72.5529,152.337 77.3863,155.004 80,161.5C 80.6667,166.167 80.6667,170.833 80,175.5C 76.4887,182.562 70.9887,184.728 63.5,182C 61.0833,180.337 59.25,178.171 58,175.5C 57.1492,169.747 57.4826,164.08 59,158.5C 60.8049,156.174 62.9716,154.508 65.5,153.5 Z M 66.5,159.5 C 70.242,158.726 72.742,160.059 74,163.5C 74.6667,166.833 74.6667,170.167 74,173.5C 70.6667,178.833 67.3333,178.833 64,173.5C 63.3333,170.167 63.3333,166.833 64,163.5C 64.4796,161.867 65.3129,160.534 66.5,159.5 Z"/></g>
<g><path style="opacity:0.72" fill="#000000" d="M 83.5,153.5 C 84.8221,153.33 85.9887,153.663 87,154.5C 88.1277,159.139 89.1277,163.805 90,168.5C 90.9119,164.205 91.5785,159.872 92,155.5C 93.7328,153.398 95.7328,153.065 98,154.5C 100.121,170.297 101.787,170.297 103,154.5C 104.356,153.62 105.856,153.286 107.5,153.5C 106.921,162.233 105.754,170.9 104,179.5C 102.621,184.299 100.621,184.633 98,180.5C 97.1844,175.454 96.1844,170.454 95,165.5C 94.4298,170.922 93.4298,176.255 92,181.5C 90.4506,184.003 88.7839,184.003 87,181.5C 84.5502,172.2 83.3835,162.867 83.5,153.5 Z"/></g>
<g><path style="opacity:0.761" fill="#000000" d="M 195.5,153.5 C 202.9,152.117 208.066,154.784 211,161.5C 211.667,166.167 211.667,170.833 211,175.5C 206.678,183.384 200.511,185.218 192.5,181C 190.959,179.421 189.792,177.587 189,175.5C 188.149,169.747 188.483,164.08 190,158.5C 191.73,156.598 193.563,154.931 195.5,153.5 Z M 197.5,159.5 C 201.242,158.726 203.742,160.059 205,163.5C 205.667,166.833 205.667,170.167 205,173.5C 201.667,178.833 198.333,178.833 195,173.5C 194.333,170.167 194.333,166.833 195,163.5C 195.48,161.867 196.313,160.534 197.5,159.5 Z"/></g>
<g><path style="opacity:0.749" fill="#000000" d="M 215.5,153.5 C 217.827,153.247 219.827,153.914 221.5,155.5C 232.335,151.771 238.002,155.771 238.5,167.5C 238.051,179.818 232.218,183.818 221,179.5C 220.667,182.5 220.333,185.5 220,188.5C 217.546,190.013 215.879,189.346 215,186.5C 214.212,175.454 214.378,164.454 215.5,153.5 Z M 226.5,158.5 C 230.894,159.866 232.561,162.866 231.5,167.5C 232.563,172.148 230.896,175.148 226.5,176.5C 222.273,175.06 220.273,172.06 220.5,167.5C 220.298,162.873 222.298,159.873 226.5,158.5 Z"/></g>
</svg>
